<svg width="178" height="106" viewBox="0 0 178 106" fill="none" xmlns="http://www.w3.org/2000/svg">
<path d="M177.199 0.00197074L147.522 30H139.45L162.588 6.18156C162.588 6.18156 115.248 4.88059 110.573 6.18156C99.4681 9.27136 97.3252 15.2578 97.52 25.4928C97.6758 33.6808 107.066 37.7876 111.741 38.8176C116.417 39.8475 153.627 38.8176 153.627 38.8176C157.523 38.8176 162.588 40.9418 164.341 42.4867C172.913 47.7007 176.943 60.6937 172 71C169.782 75.6257 167.841 77.5 164.341 80.5C160.841 83.5 155.5 84.5852 152.653 84.5852C149.805 84.5852 87 84.8933 87 84.8933L116.605 54L125.107 54.0704L101.416 78.2125L152.653 78.4037C154.601 78.4037 157.133 78.7899 163.562 73.5778C169.485 67.3982 168.887 59.6737 167.848 56.5839C163.757 44.4179 152.458 44.8041 152.458 44.8041C152.458 44.8041 113.69 44.9972 111.741 44.8041C109.793 44.611 106.287 43.8385 103.364 42.2936C100.442 40.7487 96.7452 37.7935 95.1822 35.7278C91.6755 31.0931 91.0911 28.3312 91.0911 23.1755C91.0911 17.5 92.3031 13.78 95.1822 9.6576C102.196 -0.384269 112.131 0.00197074 112.131 0.00197074H177.199Z" fill="url(#paint0_linear_18_44)"/>
<path d="M0 84.8933V0.387641L31.6421 32.9495L27.7833 37.2135L5.78818 14.7303L5.82958 70.9383L76.5133 0H84.8933L0 84.8933Z" fill="url(#paint1_linear_18_44)"/>
<path d="M46.3209 46.8682L42.4468 51.2027L74.9892 84.8933H83.1248L46.3209 46.8682Z" fill="url(#paint2_linear_18_44)"/>
<path d="M2.44153 102.515L2.37853 101.129L5.68153 97.7H6.99553L4.25053 100.616L3.60253 101.327L2.44153 102.515ZM1.39753 104V97.7H2.56753V104H1.39753ZM5.78953 104L3.37753 101.129L4.15153 100.274L7.15753 104H5.78953ZM15.6195 104L18.4545 97.7H19.6065L22.4505 104H21.2265L18.7875 98.321H19.2555L16.8255 104H15.6195ZM16.9245 102.542L17.2395 101.624H20.6415L20.9565 102.542H16.9245ZM32.0717 104V97.7H34.6637C35.2217 97.7 35.6987 97.79 36.0947 97.97C36.4967 98.15 36.8057 98.408 37.0217 98.744C37.2377 99.08 37.3457 99.479 37.3457 99.941C37.3457 100.403 37.2377 100.802 37.0217 101.138C36.8057 101.468 36.4967 101.723 36.0947 101.903C35.6987 102.077 35.2217 102.164 34.6637 102.164H32.7197L33.2417 101.633V104H32.0717ZM36.1937 104L34.6007 101.714H35.8517L37.4537 104H36.1937ZM33.2417 101.759L32.7197 101.201H34.6097C35.1257 101.201 35.5127 101.09 35.7707 100.868C36.0347 100.646 36.1667 100.337 36.1667 99.941C36.1667 99.539 36.0347 99.23 35.7707 99.014C35.5127 98.798 35.1257 98.69 34.6097 98.69H32.7197L33.2417 98.114V101.759ZM46.5837 104L49.4187 97.7H50.5707L53.4147 104H52.1907L49.7517 98.321H50.2197L47.7897 104H46.5837ZM47.8887 102.542L48.2037 101.624H51.6057L51.9207 102.542H47.8887ZM63.0359 104V97.7H63.9989L67.9499 102.551H67.4729V97.7H68.6339V104H67.6709L63.7199 99.149H64.1969V104H63.0359ZM92.4024 104.09C91.9104 104.09 91.4394 104.021 90.9894 103.883C90.5394 103.739 90.1824 103.556 89.9184 103.334L90.3234 102.425C90.5754 102.623 90.8874 102.788 91.2594 102.92C91.6314 103.052 92.0124 103.118 92.4024 103.118C92.7324 103.118 92.9994 103.082 93.2034 103.01C93.4074 102.938 93.5574 102.842 93.6534 102.722C93.7494 102.596 93.7974 102.455 93.7974 102.299C93.7974 102.107 93.7284 101.954 93.5904 101.84C93.4524 101.72 93.2724 101.627 93.0504 101.561C92.8344 101.489 92.5914 101.423 92.3214 101.363C92.0574 101.303 91.7904 101.234 91.5204 101.156C91.2564 101.072 91.0134 100.967 90.7914 100.841C90.5754 100.709 90.3984 100.535 90.2604 100.319C90.1224 100.103 90.0534 99.827 90.0534 99.491C90.0534 99.149 90.1434 98.837 90.3234 98.555C90.5094 98.267 90.7884 98.039 91.1604 97.871C91.5384 97.697 92.0154 97.61 92.5914 97.61C92.9694 97.61 93.3444 97.658 93.7164 97.754C94.0884 97.85 94.4124 97.988 94.6884 98.168L94.3194 99.077C94.0374 98.909 93.7464 98.786 93.4464 98.708C93.1464 98.624 92.8584 98.582 92.5824 98.582C92.2584 98.582 91.9944 98.621 91.7904 98.699C91.5924 98.777 91.4454 98.879 91.3494 99.005C91.2594 99.131 91.2144 99.275 91.2144 99.437C91.2144 99.629 91.2804 99.785 91.4124 99.905C91.5504 100.019 91.7274 100.109 91.9434 100.175C92.1654 100.241 92.4114 100.307 92.6814 100.373C92.9514 100.433 93.2184 100.502 93.4824 100.58C93.7524 100.658 93.9954 100.76 94.2114 100.886C94.4334 101.012 94.6104 101.183 94.7424 101.399C94.8804 101.615 94.9494 101.888 94.9494 102.218C94.9494 102.554 94.8564 102.866 94.6704 103.154C94.4904 103.436 94.2114 103.664 93.8334 103.838C93.4554 104.006 92.9784 104.09 92.4024 104.09ZM109.358 97.7H110.528V104H109.358V97.7ZM106.1 104H104.93V97.7H106.1V104ZM109.448 101.3H106.001V100.301H109.448V101.3ZM122.116 100.319H125.248V101.282H122.116V100.319ZM122.206 103.019H125.761V104H121.036V97.7H125.635V98.681H122.206V103.019ZM137.163 104V98.69H135.075V97.7H140.421V98.69H138.333V104H137.163ZM151.485 104V98.69H149.397V97.7H154.743V98.69H152.655V104H151.485ZM165.892 104V101.507L166.153 102.227L163.417 97.7H164.668L166.864 101.345H166.162L168.376 97.7H169.528L166.792 102.227L167.062 101.507V104H165.892Z" fill="url(#paint3_linear_18_44)"/>
<defs>
<linearGradient id="paint0_linear_18_44" x1="83.9458" y1="78.5" x2="179.848" y2="68.8929" gradientUnits="userSpaceOnUse">
<stop offset="0.00328205" stop-color="#111A42"/>
<stop offset="1" stop-color="#77D6D7"/>
</linearGradient>
<linearGradient id="paint1_linear_18_44" x1="-2.87451" y1="78.5" x2="87.4893" y2="69.9802" gradientUnits="userSpaceOnUse">
<stop offset="0.00328205" stop-color="#111A42"/>
<stop offset="1" stop-color="#77D6D7"/>
</linearGradient>
<linearGradient id="paint2_linear_18_44" x1="41.0694" y1="82.0297" x2="84.3137" y2="77.668" gradientUnits="userSpaceOnUse">
<stop offset="0.00328205" stop-color="#111A42"/>
<stop offset="1" stop-color="#77D6D7"/>
</linearGradient>
<linearGradient id="paint3_linear_18_44" x1="-38" y1="101" x2="170" y2="100.5" gradientUnits="userSpaceOnUse">
<stop stop-color="#111A42"/>
<stop offset="0.37" stop-color="#72CCCF"/>
</linearGradient>
</defs>
</svg>
